<svg xmlns="http://www.w3.org/2000/svg" xmlns:xlink="http://www.w3.org/1999/xlink" viewBox="-4667.172 705.149 1676.102 760.411">
  <defs>
    <style>
      .cls-1 {
        fill: url(#linear-gradient);
      }

      .cls-2 {
        fill: none;
        stroke: #000;
        stroke-miterlimit: 10;
      }
    </style>
    <linearGradient id="linear-gradient" x1="-0.025" y1="0.988" x2="0.681" y2="-0.007" gradientUnits="objectBoundingBox">
      <stop offset="0" stop-color="#18e3d6"/>
      <stop offset="0.15" stop-color="#61adc0"/>
      <stop offset="0.32" stop-color="#ad75a8"/>
      <stop offset="0.44" stop-color="#dd529a"/>
      <stop offset="0.5" stop-color="#ef4594"/>
      <stop offset="0.55" stop-color="#e84897"/>
      <stop offset="0.62" stop-color="#d44f9e"/>
      <stop offset="0.71" stop-color="#b45cab"/>
      <stop offset="0.8" stop-color="#886ebc"/>
      <stop offset="0.91" stop-color="#5084d2"/>
      <stop offset="1" stop-color="#189ae7"/>
    </linearGradient>
  </defs>
  <g id="Group_81" data-name="Group 81" transform="translate(-4764 -515)">
    <g id="Монтажная_область_1" data-name="Монтажная область 1" transform="translate(-184.527 1404.141) rotate(-30)">
      <path id="Path_72" data-name="Path 72" class="cls-1" d="M573.541,156.808c-.212-7.22-2.1-16.88-7.281-23.062C559.01,125.1,547.416,121.1,543.6,121.1c-.276,0-.547-.1-.823-.1H491V222.356h23.064v-26.7h31.662c.333,0,.653-.151.992-.151,2.711,0,12.909-3.336,19.545-11.988C571.512,176.665,573.8,165.523,573.541,156.808ZM540.8,170.389a3.865,3.865,0,0,1-1.438.992H518.372c-1.369,0-2.477-.825-2.477-1.843V146.512c0-1.018,1.109-1.841,2.477-1.841h20.993c.238,0,.784.4,1.523,1.069C548.827,152.9,548.843,163.3,540.8,170.389Z"/>
      <path id="Path_73" data-name="Path 73" class="cls-2" d="M546.687,228.579l38.48.3s19.807-5.449,20.089-26.095c.274-20.571-15.951-25.769-18.669-26.581a2.961,2.961,0,0,0-.855-.123H549.1a3.025,3.025,0,0,0-3.025,3.025v80.728" transform="translate(-44.155 -44.155)"/>
    </g>
    <g id="Монтажная_область_1-2" data-name="Монтажная область 1" transform="translate(973.473 1402.141) rotate(-30)">
      <path id="Path_72-2" data-name="Path 72" class="cls-1" d="M573.541,156.808c-.212-7.22-2.1-16.88-7.281-23.062C559.01,125.1,547.416,121.1,543.6,121.1c-.276,0-.547-.1-.823-.1H491V222.356h23.064v-26.7h31.662c.333,0,.653-.151.992-.151,2.711,0,12.909-3.336,19.545-11.988C571.512,176.665,573.8,165.523,573.541,156.808ZM540.8,170.389a3.865,3.865,0,0,1-1.438.992H518.372c-1.369,0-2.477-.825-2.477-1.843V146.512c0-1.018,1.109-1.841,2.477-1.841h20.993c.238,0,.784.4,1.523,1.069C548.827,152.9,548.843,163.3,540.8,170.389Z"/>
      <path id="Path_73-2" data-name="Path 73" class="cls-2" d="M546.687,228.579l38.48.3s19.807-5.449,20.089-26.095c.274-20.571-15.951-25.769-18.669-26.581a2.961,2.961,0,0,0-.855-.123H549.1a3.025,3.025,0,0,0-3.025,3.025v80.728" transform="translate(-44.155 -44.155)"/>
    </g>
    <g id="Монтажная_область_1-3" data-name="Монтажная область 1" transform="matrix(0.574, -0.819, 0.819, 0.574, 164.346, 2255.226)">
      <path id="Path_72-3" data-name="Path 72" class="cls-1" d="M573.541,156.808c-.212-7.22-2.1-16.88-7.281-23.062C559.01,125.1,547.416,121.1,543.6,121.1c-.276,0-.547-.1-.823-.1H491V222.356h23.064v-26.7h31.662c.333,0,.653-.151.992-.151,2.711,0,12.909-3.336,19.545-11.988C571.512,176.665,573.8,165.523,573.541,156.808ZM540.8,170.389a3.865,3.865,0,0,1-1.438.992H518.372c-1.369,0-2.477-.825-2.477-1.843V146.512c0-1.018,1.109-1.841,2.477-1.841h20.993c.238,0,.784.4,1.523,1.069C548.827,152.9,548.843,163.3,540.8,170.389Z"/>
      <path id="Path_73-3" data-name="Path 73" class="cls-2" d="M546.687,228.579l38.48.3s19.807-5.449,20.089-26.095c.274-20.571-15.951-25.769-18.669-26.581a2.961,2.961,0,0,0-.855-.123H549.1a3.025,3.025,0,0,0-3.025,3.025v80.728" transform="translate(-44.155 -44.155)"/>
    </g>
    <g id="Монтажная_область_1-4" data-name="Монтажная область 1" transform="matrix(0.995, -0.105, 0.105, 0.995, 911.971, 1810.579)">
      <path id="Path_72-4" data-name="Path 72" class="cls-1" d="M573.541,156.808c-.212-7.22-2.1-16.88-7.281-23.062C559.01,125.1,547.416,121.1,543.6,121.1c-.276,0-.547-.1-.823-.1H491V222.356h23.064v-26.7h31.662c.333,0,.653-.151.992-.151,2.711,0,12.909-3.336,19.545-11.988C571.512,176.665,573.8,165.523,573.541,156.808ZM540.8,170.389a3.865,3.865,0,0,1-1.438.992H518.372c-1.369,0-2.477-.825-2.477-1.843V146.512c0-1.018,1.109-1.841,2.477-1.841h20.993c.238,0,.784.4,1.523,1.069C548.827,152.9,548.843,163.3,540.8,170.389Z"/>
      <path id="Path_73-4" data-name="Path 73" class="cls-2" d="M546.687,228.579l38.48.3s19.807-5.449,20.089-26.095c.274-20.571-15.951-25.769-18.669-26.581a2.961,2.961,0,0,0-.855-.123H549.1a3.025,3.025,0,0,0-3.025,3.025v80.728" transform="translate(-44.155 -44.155)"/>
    </g>
    <g id="Монтажная_область_1-5" data-name="Монтажная область 1" transform="matrix(0.719, -0.695, 0.695, 0.719, -170.979, 1857.521)">
      <path id="Path_72-5" data-name="Path 72" class="cls-1" d="M552.345,147.613c-.158-5.366-1.558-12.545-5.412-17.14-5.388-6.424-14-9.4-16.839-9.4-.2,0-.407-.077-.612-.077H491v75.329h17.141V176.483h23.532c.248,0,.485-.112.737-.112,2.015,0,9.594-2.48,14.526-8.91C550.837,162.371,552.537,154.09,552.345,147.613Zm-24.331,10.094a2.872,2.872,0,0,1-1.069.737h-15.6c-1.017,0-1.841-.613-1.841-1.369V139.961c0-.756.824-1.368,1.841-1.368h15.6c.177,0,.582.295,1.132.795C533.977,144.707,533.989,152.435,528.014,157.706Z" transform="translate(0 0)"/>
      <path id="Path_73-5" data-name="Path 73" class="cls-2" d="M546.531,215.1l28.6.223s14.721-4.049,14.93-19.394c.2-15.288-11.855-19.152-13.875-19.755a2.2,2.2,0,0,0-.635-.091H548.328a2.248,2.248,0,0,0-2.248,2.248v60" transform="translate(-46.96 -46.96)"/>
    </g>
    <g id="Монтажная_область_1-6" data-name="Монтажная область 1" transform="matrix(0.719, -0.695, 0.695, 0.719, 1111.021, 1858.521)">
      <path id="Path_72-6" data-name="Path 72" class="cls-1" d="M552.345,147.613c-.158-5.366-1.558-12.545-5.412-17.14-5.388-6.424-14-9.4-16.839-9.4-.2,0-.407-.077-.612-.077H491v75.329h17.141V176.483h23.532c.248,0,.485-.112.737-.112,2.015,0,9.594-2.48,14.526-8.91C550.837,162.371,552.537,154.09,552.345,147.613Zm-24.331,10.094a2.872,2.872,0,0,1-1.069.737h-15.6c-1.017,0-1.841-.613-1.841-1.369V139.961c0-.756.824-1.368,1.841-1.368h15.6c.177,0,.582.295,1.132.795C533.977,144.707,533.989,152.435,528.014,157.706Z" transform="translate(0 0)"/>
      <path id="Path_73-6" data-name="Path 73" class="cls-2" d="M546.531,215.1l28.6.223s14.721-4.049,14.93-19.394c.2-15.288-11.855-19.152-13.875-19.755a2.2,2.2,0,0,0-.635-.091H548.328a2.248,2.248,0,0,0-2.248,2.248v60" transform="translate(-46.96 -46.96)"/>
    </g>
    <g id="Монтажная_область_1-7" data-name="Монтажная область 1" transform="translate(1290.766 1116.953) rotate(16)">
      <path id="Path_72-7" data-name="Path 72" class="cls-1" d="M536.28,140.643c-.116-3.961-1.15-9.26-3.994-12.651-3.977-4.742-10.337-6.936-12.429-6.936-.151,0-.3-.057-.452-.057H491v55.6h12.652V161.953h17.369c.183,0,.358-.083.544-.083,1.487,0,7.081-1.83,10.722-6.576C535.167,151.536,536.422,145.425,536.28,140.643Zm-17.959,7.45a2.12,2.12,0,0,1-.789.544H506.016c-.751,0-1.359-.453-1.359-1.011V135c0-.558.608-1.01,1.359-1.01h11.516c.131,0,.43.218.836.586C522.722,138.5,522.731,144.2,518.321,148.094Z" transform="translate(0 0)"/>
      <path id="Path_73-7" data-name="Path 73" class="cls-2" d="M546.413,204.88l21.109.164s10.866-2.989,11.02-14.315c.15-11.285-8.75-14.137-10.241-14.582a1.624,1.624,0,0,0-.469-.067H547.739a1.659,1.659,0,0,0-1.659,1.659v44.286" transform="translate(-49.087 -49.087)"/>
    </g>
    <g id="Монтажная_область_1-8" data-name="Монтажная область 1" transform="translate(-335.921 1661.554) rotate(-45)">
      <path id="Path_72-8" data-name="Path 72" class="cls-1" d="M536.28,140.643c-.116-3.961-1.15-9.26-3.994-12.651-3.977-4.742-10.337-6.936-12.429-6.936-.151,0-.3-.057-.452-.057H491v55.6h12.652V161.953h17.369c.183,0,.358-.083.544-.083,1.487,0,7.081-1.83,10.722-6.576C535.167,151.536,536.422,145.425,536.28,140.643Zm-17.959,7.45a2.12,2.12,0,0,1-.789.544H506.016c-.751,0-1.359-.453-1.359-1.011V135c0-.558.608-1.01,1.359-1.01h11.516c.131,0,.43.218.836.586C522.722,138.5,522.731,144.2,518.321,148.094Z" transform="translate(0 0)"/>
      <path id="Path_73-8" data-name="Path 73" class="cls-2" d="M546.413,204.88l21.109.164s10.866-2.989,11.02-14.315c.15-11.285-8.75-14.137-10.241-14.582a1.624,1.624,0,0,0-.469-.067H547.739a1.659,1.659,0,0,0-1.659,1.659v44.286" transform="translate(-49.087 -49.087)"/>
    </g>
  </g>
</svg>
