<svg xmlns="http://www.w3.org/2000/svg" viewBox="-3272.646 -490.903 180.345 43.239">
  <defs>
    <style>
      .cls-1 {
        fill: #5e5e5e;
      }

      .cls-2 {
        fill: #fff;
      }
    </style>
  </defs>
  <g id="Group_91" data-name="Group 91" transform="translate(-4734 -525)">
    <g id="Symbol_14_3" data-name="Symbol 14 – 3" transform="translate(-113.702 -2.375)">
      <path id="Path_47" data-name="Path 47" class="cls-1" d="M19.121,0H57.363a19.121,19.121,0,0,1,0,38.242H19.121A19.121,19.121,0,0,1,19.121,0Z" transform="translate(1627 38.758)"/>
      <path id="Path_48" data-name="Path 48" class="cls-2" d="M17.474,0A17.474,17.474,0,1,1,0,17.474,17.474,17.474,0,0,1,17.474,0Z" transform="translate(1666.537 40.523)"/>
    </g>
    <g id="DARK_SIDE-icon" transform="translate(1461.354 35.002)">
      <ellipse id="Ellipse_4" data-name="Ellipse 4" class="cls-2" cx="1.929" cy="1.866" rx="1.929" ry="1.866" transform="translate(19.179 19.372)"/>
      <path id="Path_38" data-name="Path 38" class="cls-2" d="M139.57,126.05A16.649,16.649,0,1,0,156.141,142.7,16.609,16.609,0,0,0,139.57,126.05Zm10.46,8.583,1.741,2.971-6.081,2.608-.936-1.593Zm-8.673-5-.824,6.564h-1.846l-.774-6.564ZM129.22,150.564l-1.741-2.971,6.078-2.608.936,1.594Zm4.382-10.447-6.124-2.486,1.661-3.018,5.354,3.885Zm4.3,15.379.967-6.544,1.846.04.63,6.579Zm1.72-8.015A4.784,4.784,0,1,1,144.4,142.7a4.784,4.784,0,0,1-4.784,4.784Zm10.491,3.045-5.354-3.885.89-1.618,6.124,2.486Z" transform="translate(-118.509 -121.444)"/>
      <path id="Path_39" data-name="Path 39" class="cls-2" d="M24.217,3A21.167,21.167,0,1,0,45.385,24.167,21.167,21.167,0,0,0,24.217,3Zm-.03,40.757A19.543,19.543,0,1,1,43.66,24.213,19.508,19.508,0,0,1,24.188,43.757Z" transform="translate(-3.05 -3)"/>
      <path id="Path_40" data-name="Path 40" class="cls-2" d="M103.2,235.65l-2.246,2.758-1.327-.918-1.021,1.743,1.572.759-1.389,3.319,1.366.293.918-1.872a29.131,29.131,0,0,1,1.991-3.444l1.147-1.7Z" transform="translate(-95.032 -226.941)"/>
      <path id="Path_41" data-name="Path 41" class="cls-2" d="M888.334,237.52l-1.221-3.46,1.348-.6-.991-1.8-1.337.863-2.177-3.008-1.106,1.166,1.27,1.694a30.047,30.047,0,0,1,1.962,3.6l.883,1.925Z" transform="translate(-849.913 -221.04)"/>
      <path id="Path_42" data-name="Path 42" class="cls-2" d="M459.739,49.646l-3.506-.594.2-1.641-2.062-.153.1,1.9-3.573.428.222,1.473L453.4,50.8a12.419,12.419,0,0,1,3.977.034l2.1.288Z" transform="translate(-434.134 -45.95)"/>
      <path id="Path_43" data-name="Path 43" class="cls-2" d="M450.94,1003.754l3.524.487-.09,1.538h2.011l-.164-1.7,3.557-.538-.487-1.219-1.984.2a28.967,28.967,0,0,1-3.968.112l-2.108-.306Z" transform="translate(-434.172 -964.91)"/>
      <path id="Path_44" data-name="Path 44" class="cls-2" d="M886.337,698.4l2.225-2.784,1.3.936.877-1.811-1.378-.7,1.45-3.294-1.548-.36-.766,1.9a29.031,29.031,0,0,1-2.053,3.407l-1.176,1.68Z" transform="translate(-852.242 -664.657)"/>
      <path id="Path_45" data-name="Path 45" class="cls-2" d="M103.34,693.917l1.315,3.323-1.315.562.936,1.756,1.308-.817,2.066,2.946,1.164-1.077-1.281-1.7a29.5,29.5,0,0,1-2-3.467l-.821-1.9Z" transform="translate(-99.585 -667.699)"/>
    </g>
    <g id="WHITE_SIDE-icon" transform="translate(1599.365 34.097)">
      <path id="Path_46" data-name="Path 46" class="cls-2" d="M71.093,29.932l-2.412-2.7a9.336,9.336,0,0,0-2.216,1.521A7.69,7.69,0,0,0,64.9,30.529a11.461,11.461,0,0,1,.471-2.464,13.381,13.381,0,0,1,1.393-2.849L62.887,21,59.07,25.216a14.562,14.562,0,0,1,1.412,2.753,9.165,9.165,0,0,1,.49,2.56,15.249,15.249,0,0,0-3.844-3.35l-2.432,2.7a9,9,0,0,1,5.374,8.278c.033,5.548-1.836,7.64-4.844,7.662-2.939-.077-6.956-4.12-7.558-7.816-.754-3.779,1.067-9.792,4.5-13.569-5.541,3.666-9.833,8.593-10.356,17.325-.635,6.561,5.372,21.383,21.074,21.483.123.44,21.955.4,21.2-23.43-1.713-11.281-10.2-15.377-10.2-15.377s5.9,6.214,4.531,12.847c-.171.318-.039,4.108-5.217,7.958-7.557,3.187-7.339-6.865-7.4-7.035C66.261,33.628,68.182,31.084,71.093,29.932Z" transform="translate(-41.767 -21)"/>
    </g>
  </g>
</svg>
