<svg xmlns="http://www.w3.org/2000/svg" xmlns:xlink="http://www.w3.org/1999/xlink" viewBox="-4597.492 746.785 1756.492 818.203">
  <defs>
    <style>
      .cls-1 {
        fill: url(#linear-gradient);
      }

      .cls-2 {
        fill: none;
        stroke: #707070;
        stroke-width: 2px;
      }
    </style>
    <linearGradient id="linear-gradient" x1="-0.025" y1="0.988" x2="0.681" y2="-0.007" gradientUnits="objectBoundingBox">
      <stop offset="0" stop-color="#18e3d6"/>
      <stop offset="0.15" stop-color="#61adc0"/>
      <stop offset="0.32" stop-color="#ad75a8"/>
      <stop offset="0.44" stop-color="#dd529a"/>
      <stop offset="0.5" stop-color="#ef4594"/>
      <stop offset="0.55" stop-color="#e84897"/>
      <stop offset="0.62" stop-color="#d44f9e"/>
      <stop offset="0.71" stop-color="#b45cab"/>
      <stop offset="0.8" stop-color="#886ebc"/>
      <stop offset="0.91" stop-color="#5084d2"/>
      <stop offset="1" stop-color="#189ae7"/>
    </linearGradient>
  </defs>
  <g id="Group_82" data-name="Group 82" transform="translate(-4477 -14.319)">
    <g id="Монтажная_область_1" data-name="Монтажная область 1" transform="translate(159.055 859.71) rotate(-30)">
      <path id="Path_72" data-name="Path 72" class="cls-1" d="M137.18,59.512c-.353-12-3.484-28.053-12.1-38.328C113.03,6.817,93.762.171,87.423.171c-.458,0-.91-.171-1.368-.171H0V168.451H38.332V124.07H90.954c.554,0,1.085-.251,1.648-.251,4.506,0,21.453-5.545,32.484-19.924C133.808,92.513,137.609,74,137.18,59.512ZM82.772,82.083a6.423,6.423,0,0,1-2.39,1.648H45.492c-2.275,0-4.117-1.371-4.117-3.062V42.4c0-1.691,1.843-3.059,4.117-3.059h34.89c.4,0,1.3.659,2.532,1.777C96.106,53.014,96.132,70.294,82.772,82.083Z" transform="translate(0 0)"/>
      <path id="Path_73" data-name="Path 73" class="cls-2" d="M1.009,87.252l63.952.5s32.919-9.056,33.387-43.369C98.8,10.193,71.837,1.553,67.321.2A4.922,4.922,0,0,0,65.9,0H5.027A5.027,5.027,0,0,0,0,5.027V139.194" transform="translate(18.157 18.157)"/>
    </g>
    <g id="Монтажная_область_1-2" data-name="Монтажная область 1" transform="translate(1093.079 909.408) rotate(-30)">
      <path id="Path_72-2" data-name="Path 72" class="cls-1" d="M123.863,53.734c-.318-10.834-3.146-25.33-10.927-34.608C102.058,6.155,84.66.155,78.936.155,78.523.155,78.115,0,77.7,0H0V152.1H34.611V112.026H82.124c.5,0,.979-.226,1.488-.226,4.069,0,19.371-5.006,29.33-17.99C120.818,83.532,124.25,66.813,123.863,53.734ZM74.737,74.114A5.8,5.8,0,0,1,72.579,75.6h-31.5c-2.054,0-3.718-1.238-3.718-2.765V38.284c0-1.527,1.664-2.762,3.718-2.762h31.5c.357,0,1.176.6,2.286,1.6C86.776,47.868,86.8,63.471,74.737,74.114Z" transform="translate(0 0)"/>
      <path id="Path_73-2" data-name="Path 73" class="cls-2" d="M.911,78.782l57.744.449S88.378,71.055,88.8,40.072C89.211,9.2,64.863,1.4,60.786.185A4.444,4.444,0,0,0,59.5,0H4.539A4.539,4.539,0,0,0,0,4.539V125.682" transform="translate(16.395 16.394)"/>
    </g>
    <g id="Монтажная_область_1-3" data-name="Монтажная область 1" transform="matrix(0.719, -0.695, 0.695, 0.719, -51.914, 1459.25)">
      <path id="Path_72-3" data-name="Path 72" class="cls-1" d="M101.954,44.23c-.262-8.918-2.59-20.849-8.994-28.486C84.005,5.067,69.685.127,64.974.127,64.633.127,64.3,0,63.957,0H0V125.195H28.488V92.21H67.6c.412,0,.806-.186,1.225-.186,3.349,0,15.944-4.121,24.142-14.808C99.448,68.757,102.272,54.995,101.954,44.23ZM61.517,61a4.774,4.774,0,0,1-1.776,1.225H33.81c-1.69,0-3.06-1.019-3.06-2.276V31.512c0-1.257,1.37-2.274,3.06-2.274H59.741c.294,0,.968.49,1.881,1.321C71.427,39.4,71.447,52.244,61.517,61Z" transform="translate(0 0)"/>
      <path id="Path_73-3" data-name="Path 73" class="cls-2" d="M.75,64.846l47.53.37s24.465-6.73,24.813-32.232C73.431,7.575,53.39,1.154,50.034.152A3.655,3.655,0,0,0,48.978,0H3.736A3.736,3.736,0,0,0,0,3.736v99.715" transform="translate(13.495 13.495)"/>
    </g>
    <g id="Монтажная_область_1-4" data-name="Монтажная область 1" transform="matrix(0.719, -0.695, 0.695, 0.719, 1274.412, 1389.455)">
      <path id="Path_72-4" data-name="Path 72" class="cls-1" d="M90.543,39.279c-.233-7.92-2.3-18.516-7.987-25.3C74.6,4.5,61.886.113,57.7.113c-.3,0-.6-.113-.9-.113H0V111.182H25.3V81.89H60.032c.366,0,.716-.165,1.088-.165,2.974,0,14.16-3.66,21.44-13.15C88.317,61.061,90.826,48.84,90.543,39.279Zm-35.911,14.9a4.239,4.239,0,0,1-1.577,1.088H30.026c-1.5,0-2.718-.905-2.718-2.021V27.985c0-1.116,1.216-2.019,2.718-2.019H53.054c.261,0,.859.435,1.671,1.173C63.433,34.991,63.45,46.4,54.632,54.177Z" transform="translate(0 0)"/>
      <path id="Path_73-4" data-name="Path 73" class="cls-2" d="M.666,57.589l42.21.329S64.6,51.94,64.912,29.293c.3-22.565-17.5-28.268-20.479-29.158A3.246,3.246,0,0,0,43.5,0H3.318A3.318,3.318,0,0,0,0,3.318V91.872" transform="translate(11.984 11.984)"/>
    </g>
    <g id="Монтажная_область_1-5" data-name="Монтажная область 1" transform="translate(1541.742 1041.306) rotate(16)">
      <path id="Path_72-5" data-name="Path 72" class="cls-1" d="M66.832,28.993c-.172-5.846-1.7-13.667-5.9-18.673C55.066,3.321,45.679.084,42.591.084c-.223,0-.443-.084-.666-.084H0V82.066H18.674V60.445H44.311c.27,0,.528-.122.8-.122,2.2,0,10.452-2.7,15.825-9.707C65.189,45.07,67.04,36.05,66.832,28.993Zm-26.507,11a3.129,3.129,0,0,1-1.164.8h-17c-1.108,0-2.006-.668-2.006-1.492V20.656c0-.824.9-1.49,2.006-1.49h17c.193,0,.634.321,1.233.866C46.821,25.828,46.834,34.246,40.325,39.989Z" transform="translate(0 0)"/>
      <path id="Path_73-5" data-name="Path 73" class="cls-2" d="M.491,42.507l31.156.242s16.037-4.412,16.265-21.128C48.135,4.966,35,.756,32.8.1a2.4,2.4,0,0,0-.692-.1H2.449A2.449,2.449,0,0,0,0,2.449V67.813" transform="translate(8.846 8.846)"/>
    </g>
    <g id="Монтажная_область_1-6" data-name="Монтажная область 1" transform="translate(-90.492 1017.8) rotate(-45)">
      <path id="Path_72-6" data-name="Path 72" class="cls-1" d="M75.254,32.647c-.193-6.583-1.911-15.389-6.639-21.026C62.006,3.74,51.436.094,47.958.094c-.251,0-.5-.094-.75-.094H0V92.409H21.028V68.062H49.9c.3,0,.595-.137.9-.137,2.472,0,11.769-3.042,17.82-10.93C73.4,50.751,75.489,40.593,75.254,32.647ZM45.407,45.029a3.523,3.523,0,0,1-1.311.9H24.956c-1.248,0-2.259-.752-2.259-1.68V23.259c0-.928,1.011-1.678,2.259-1.678H44.1c.217,0,.714.362,1.389.975C52.722,29.082,52.736,38.562,45.407,45.029Z" transform="translate(0 0)"/>
      <path id="Path_73-6" data-name="Path 73" class="cls-2" d="M.553,47.864l35.083.273S53.695,43.17,53.951,24.346C54.2,5.592,39.408.852,36.931.112A2.7,2.7,0,0,0,36.152,0H2.758A2.758,2.758,0,0,0,0,2.758v73.6" transform="translate(9.961 9.961)"/>
    </g>
  </g>
</svg>
