<?xml version="1.0" encoding="utf-8"?>
<!-- Generator: Adobe Illustrator 22.0.1, SVG Export Plug-In . SVG Version: 6.00 Build 0)  -->
<svg version="1.1" id="Слой_1" xmlns="http://www.w3.org/2000/svg" xmlns:xlink="http://www.w3.org/1999/xlink" x="0px" y="0px"
	 viewBox="0 0 150 150" style="enable-background:new 0 0 150 150;" xml:space="preserve">
<style type="text/css">
	.st0{fill:url(#SVGID_1_);}
	.st1{fill:none;stroke:#000000;stroke-width:3;stroke-miterlimit:10;}
</style>
<g>
	<linearGradient id="SVGID_1_" gradientUnits="userSpaceOnUse" x1="20.6538" y1="-4.1081" x2="93.4737" y2="122.0195">
		<stop  offset="0.1508" style="stop-color:#00E4D7"/>
		<stop  offset="0.7074" style="stop-color:#FF4398"/>
		<stop  offset="0.9084" style="stop-color:#009BEA"/>
	</linearGradient>
	<path class="st0" d="M141.9,53.1c-0.3-10.7-3.3-25-11.6-34.1C118.9,6.1,100.5,0.2,94.5,0.2C94,0.2,93.6,0,93.2,0H14.5
		C12.6,0,11,1.5,11,3.3v143.4c0,1.8,1.6,3.3,3.5,3.3H44c2,0,3.5-1.5,3.5-3.3v-32.9c0-1.8,1.6-3.3,3.5-3.3h46.7c0.5,0,1-0.2,1.6-0.2
		c4.3,0,20.5-4.9,31-17.7C138.6,82.5,142.3,66,141.9,53.1z M90,73.2c-1.1,0.8-1.9,1.4-2.3,1.4H54.4c-2.2,0-3.9-1.2-3.9-2.7V37.8
		c0-0.8,0.5-1.4,1.2-1.9c0.7-0.5,1.7-0.8,2.7-0.8h33.3c0.4,0,1.2,0.6,2.4,1.6C102.7,47.3,102.7,62.7,90,73.2z"/>
	<path class="st1" d="M29.3,93.9l61.1,0.4c0,0,31.4-8.1,31.9-38.6c0.4-30.4-25.3-38.1-29.6-39.3c-0.4-0.1-0.9-0.2-1.4-0.2H33.1
		c-2.7,0-4.8,2-4.8,4.5v119.5"/>
</g>
</svg>
