<svg xmlns="http://www.w3.org/2000/svg" viewBox="-3158.635 -479.903 42.334 42.335">
  <defs>
    <style>
      .cls-1 {
        fill: #fff;
      }
    </style>
  </defs>
  <g id="WHITE_SIDE-icon" transform="translate(-3158.635 -479.903)">
    <path id="Path_46" data-name="Path 46" class="cls-1" d="M71.093,29.932l-2.412-2.7a9.336,9.336,0,0,0-2.216,1.521A7.69,7.69,0,0,0,64.9,30.529a11.461,11.461,0,0,1,.471-2.464,13.381,13.381,0,0,1,1.393-2.849L62.887,21,59.07,25.216a14.562,14.562,0,0,1,1.412,2.753,9.165,9.165,0,0,1,.49,2.56,15.249,15.249,0,0,0-3.844-3.35l-2.432,2.7a9,9,0,0,1,5.374,8.278c.033,5.548-1.836,7.64-4.844,7.662-2.939-.077-6.956-4.12-7.558-7.816-.754-3.779,1.067-9.792,4.5-13.569-5.541,3.666-9.833,8.593-10.356,17.325-.635,6.561,5.372,21.383,21.074,21.483.123.44,21.955.4,21.2-23.43-1.713-11.281-10.2-15.377-10.2-15.377s5.9,6.214,4.531,12.847c-.171.318-.039,4.108-5.217,7.958-7.557,3.187-7.339-6.865-7.4-7.035C66.261,33.628,68.182,31.084,71.093,29.932Z" transform="translate(-41.767 -21)"/>
  </g>
</svg>
